<svg width="18.000000" height="19.835938" viewBox="0 0 18 19.8359" fill="none" xmlns="http://www.w3.org/2000/svg" xmlns:xlink="http://www.w3.org/1999/xlink">
	<desc>
			Created with Pixso.
	</desc>
	<defs>
		<clipPath id="clip163_425">
			<rect id="adress_icon" width="18.000000" height="19.835938" fill="white" fill-opacity="0"/>
		</clipPath>
	</defs>
	<g clip-path="url(#clip163_425)">
		<path id="Vector 40" d="M17 8.05C17 7.9 16.92 7.78 16.82 7.67L15 6.07L9.32 1.11C9.13 0.94 8.84 0.94 8.66 1.11L1.16 7.67C1.05 7.78 1 7.9 1 8.05L1 18.32C1 18.6 1.21 18.82 1.5 18.82L6 18.82L11.5 18.82L12 18.82L16.5 18.82C16.76 18.82 17 18.6 17 18.32L17 8.05ZM8.5 5.82C8.21 5.82 8 6.05 8 6.32L8 7.32C8 7.6 8.21 7.82 8.5 7.82L9 7.82L9.5 7.82C9.76 7.82 10 7.6 10 7.32L10 6.32C10 6.05 9.76 5.82 9.5 5.82L9 5.82L8.5 5.82Z" fill="#000000" fill-opacity="0" fill-rule="nonzero"/>
		<path id="Vector 40" d="M16.82 7.67L15 6.07L9.32 1.11C9.13 0.94 8.84 0.94 8.66 1.11L1.16 7.67C1.05 7.78 1 7.9 1 8.05L1 18.32C1 18.6 1.21 18.82 1.5 18.82L6 18.82L11.5 18.82L12 18.82L16.5 18.82C16.76 18.82 17 18.6 17 18.32L17 8.05C17 7.9 16.92 7.78 16.82 7.67ZM15 6.07L15 2.82M6 18.82L6 11.32C6 11.05 6.21 10.82 6.5 10.82L11.5 10.82C11.76 10.82 12 11.05 12 11.32L12 18.82M8 6.32L8 7.32C8 7.6 8.21 7.82 8.5 7.82L9 7.82L9.5 7.82C9.76 7.82 10 7.6 10 7.32L10 6.32C10 6.05 9.76 5.82 9.5 5.82L9 5.82L8.5 5.82C8.21 5.82 8 6.05 8 6.32Z" stroke="#FFFFFF" stroke-opacity="1.000000" stroke-width="2.000000"/>
	</g>
</svg>
