<svg width="18.000000" height="19.835938" viewBox="0 0 18 19.8359" fill="none" xmlns="http://www.w3.org/2000/svg" xmlns:xlink="http://www.w3.org/1999/xlink">
	<desc>
			Created with Pixso.
	</desc>
	<defs/>
	<path id="Vector 40" d="M17 8.06C17 7.91 16.93 7.78 16.82 7.68L15 6.08L9.32 1.12C9.14 0.95 8.85 0.95 8.67 1.12L1.17 7.68C1.06 7.78 1 7.91 1 8.06L1 18.33C1 18.61 1.22 18.83 1.5 18.83L6 18.83L11.5 18.83L12 18.83L16.5 18.83C16.77 18.83 17 18.61 17 18.33L17 8.06ZM15 6.08L15 2.83M6 18.83L6 11.33C6 11.05 6.22 10.83 6.5 10.83L11.5 10.83C11.77 10.83 12 11.05 12 11.33L12 18.83M8.5 5.83C8.22 5.83 8 6.05 8 6.33L8 7.33C8 7.61 8.22 7.83 8.5 7.83L9 7.83L9.5 7.83C9.77 7.83 10 7.61 10 7.33L10 6.33C10 6.05 9.77 5.83 9.5 5.83L9 5.83L8.5 5.83Z" stroke="#2E3A59" stroke-opacity="1.000000" stroke-width="2.000000"/>
</svg>
