<svg width="19.000000" height="24.540039" viewBox="0 0 19 24.54" fill="none" xmlns="http://www.w3.org/2000/svg" xmlns:xlink="http://www.w3.org/1999/xlink">
	<desc>
			Created with Pixso.
	</desc>
	<defs>
		<clipPath id="clip163_427">
			<rect id="bouttle_icon" width="19.000000" height="24.539978" fill="white" fill-opacity="0"/>
		</clipPath>
	</defs>
	<g clip-path="url(#clip163_427)">
		<path id="Vector 1" d="M17.5 23.54C17.76 23.54 18 23.31 18 23.04L18 12.43L18 8.23C18 8.05 17.87 7.87 17.7 7.79L11.78 4.94C11.61 4.86 11.5 4.68 11.5 4.48L11.5 1.5C11.5 1.21 11.26 1 11 1L8 1C7.71 1 7.5 1.21 7.5 1.5L7.5 4.48C7.5 4.68 7.37 4.86 7.2 4.94L1.28 7.79C1.11 7.87 1 8.05 1 8.23L1 12.43L1 16.95L1 23.04C1 23.31 1.21 23.54 1.5 23.54L17.5 23.54ZM9.48 15.97L9.5 15.95C10.05 15.95 10.5 16.38 10.5 16.95C10.5 17.51 10.05 17.95 9.5 17.95L9.48 17.92L9.48 15.97Z" fill="#000000" fill-opacity="0" fill-rule="nonzero"/>
		<path id="Vector 1" d="M18 23.04L18 12.43L18 8.23C18 8.05 17.87 7.87 17.7 7.79L11.78 4.94C11.61 4.86 11.5 4.68 11.5 4.48L11.5 1.5C11.5 1.21 11.26 1 11 1L8 1C7.71 1 7.5 1.21 7.5 1.5L7.5 4.48C7.5 4.68 7.37 4.86 7.2 4.94L1.28 7.79C1.11 7.87 1 8.05 1 8.23L1 12.43L1 16.95L1 23.04C1 23.31 1.21 23.54 1.5 23.54L17.5 23.54C17.76 23.54 18 23.31 18 23.04ZM9.5 16.95L1 16.95M18 12.43L1 12.43" stroke="#FFFFFF" stroke-opacity="1.000000" stroke-width="1.999998" stroke-linecap="round"/>
	</g>
</svg>
