<svg width="48.000000" height="48.000000" viewBox="0 0 48 48" fill="none" xmlns="http://www.w3.org/2000/svg" xmlns:xlink="http://www.w3.org/1999/xlink">
	<desc>
			Created with Pixso.
	</desc>
	<defs>
		<clipPath id="clip1_949">
			<rect id="Frame" rx="-0.500000" width="19.000000" height="19.000000" transform="translate(14.500000 14.500000)" fill="white" fill-opacity="0"/>
		</clipPath>
		<clipPath id="clip1_948">
			<rect id="Frame 1234" rx="23.500000" width="47.000000" height="47.000000" transform="translate(0.500000 0.500000)" fill="white" fill-opacity="0"/>
		</clipPath>
	</defs>
	<rect id="Frame 1234" rx="23.500000" width="47.000000" height="47.000000" transform="translate(0.500000 0.500000)" fill="#0085FF" fill-opacity="1.000000"/>
	<g clip-path="url(#clip1_948)">
		<rect id="Frame" rx="-0.500000" width="19.000000" height="19.000000" transform="translate(14.500000 14.500000)" fill="#FFFFFF" fill-opacity="0"/>
		<g clip-path="url(#clip1_949)">
			<path id="Vector" d="M32.33 24C32.33 29 28.67 32.33 24.16 32.33C20.49 32.33 17.53 30.38 16.5 27.33" stroke="#FFFFFF" stroke-opacity="1.000000" stroke-width="1.500000" stroke-linejoin="round" stroke-linecap="round"/>
			<path id="Vector" d="M15.66 24C15.66 19 19.32 15.66 23.83 15.66C27.5 15.66 30.46 17.61 31.5 20.66" stroke="#FFFFFF" stroke-opacity="1.000000" stroke-width="1.500000" stroke-linejoin="round" stroke-linecap="round"/>
			<path id="Vector" d="M19.83 28.16L16.5 27.33L15.66 30.66" stroke="#FFFFFF" stroke-opacity="1.000000" stroke-width="1.500000" stroke-linejoin="round" stroke-linecap="round"/>
			<path id="Vector" d="M28.16 19.83L31.5 20.66L32.33 17.33" stroke="#FFFFFF" stroke-opacity="1.000000" stroke-width="1.500000" stroke-linejoin="round" stroke-linecap="round"/>
		</g>
	</g>
</svg>
