<svg width="14.582031" height="13.893013" viewBox="0 0 14.582 13.893" fill="none" xmlns="http://www.w3.org/2000/svg" xmlns:xlink="http://www.w3.org/1999/xlink">
	<desc>
			Created with Pixso.
	</desc>
	<defs/>
	<path id="Star 2" d="M7.06 0.14L5.09 4.41C5.05 4.49 4.98 4.55 4.89 4.56L0.22 5.11C0 5.14 -0.08 5.4 0.08 5.54L3.53 8.74C3.59 8.8 3.62 8.89 3.61 8.97L2.69 13.59C2.65 13.8 2.87 13.96 3.06 13.86L7.16 11.56C7.24 11.51 7.33 11.51 7.41 11.56L11.52 13.86C11.7 13.96 11.92 13.8 11.88 13.59L10.97 8.97C10.95 8.89 10.98 8.8 11.04 8.74L14.5 5.54C14.65 5.4 14.57 5.14 14.36 5.11L9.68 4.56C9.6 4.55 9.52 4.49 9.48 4.41L7.51 0.14C7.42 -0.05 7.15 -0.05 7.06 0.14Z" fill="#C6C6C8" fill-opacity="1.000000" fill-rule="evenodd"/>
</svg>
