<svg width="48.000000" height="48.000000" viewBox="0 0 48 48" fill="none" xmlns="http://www.w3.org/2000/svg" xmlns:xlink="http://www.w3.org/1999/xlink">
	<desc>
			Created with Pixso.
	</desc>
	<defs>
		<clipPath id="clip1_1223">
			<rect id="Frame 1233" rx="23.500000" width="47.000000" height="47.000000" transform="translate(0.500000 0.500000)" fill="white" fill-opacity="0"/>
		</clipPath>
	</defs>
	<rect id="Frame 1233" rx="23.500000" width="47.000000" height="47.000000" transform="translate(0.500000 0.500000)" fill="#FF7A01" fill-opacity="1.000000"/>
	<g clip-path="url(#clip1_1223)">
		<path id="Vector" d="M24 14L33.52 19.23C33.52 19.82 33.52 19.09 33.52 20.07L33.52 27.39C33.52 28.36 33.47 27.39 33.52 28.74L25.35 33.64C24.51 34.11 23.48 34.11 22.64 33.64L14.47 29.01C14.47 27.58 14.47 28.36 14.47 27.39C14.47 25.69 14.47 20.29 14.47 19.44L24 14ZM14.47 19.44L23.25 24.61" stroke="#FFFFFF" stroke-opacity="1.000000" stroke-width="1.500000" stroke-linejoin="round"/>
		<path id="Vector" d="M22.71 24.19C23.51 24.62 24.48 24.62 25.29 24.19L33.05 19.71" stroke="#FFFFFF" stroke-opacity="1.000000" stroke-width="1.500000" stroke-linejoin="round" stroke-linecap="round"/>
		<path id="Vector" d="M24 24.88L24 33.73" stroke="#FFFFFF" stroke-opacity="1.000000" stroke-width="1.500000" stroke-linejoin="round" stroke-linecap="round"/>
		<path id="Vector 37" d="M18.96 16.51L28.96 22.23" stroke="#FFFFFF" stroke-opacity="1.000000" stroke-width="1.500000"/>
	</g>
</svg>
