<svg width="48.000000" height="48.000000" viewBox="0 0 48 48" fill="none" xmlns="http://www.w3.org/2000/svg" xmlns:xlink="http://www.w3.org/1999/xlink">
	<desc>
			Created with Pixso.
	</desc>
	<defs>
		<clipPath id="clip1_1232">
			<rect id="Frame 1234" rx="23.500000" width="47.000000" height="47.000000" transform="translate(0.500000 0.500000)" fill="white" fill-opacity="0"/>
		</clipPath>
	</defs>
	<rect id="Frame 1234" rx="23.500000" width="47.000000" height="47.000000" transform="translate(0.500000 0.500000)" fill="#FF7A01" fill-opacity="1.000000"/>
	<g clip-path="url(#clip1_1232)">
		<path id="Union" d="M24.4637 16.4193L14.7299 16.4193C14.3098 16.4193 13.9799 16.7493 13.9799 17.1693C13.9799 17.5894 14.3098 17.9193 14.7299 17.9193L24.4637 17.9193Q24.5155 17.9193 24.5597 17.9376Q24.6039 17.9559 24.6405 17.9926Q24.6771 18.0292 24.6954 18.0734Q24.7137 18.1176 24.7137 18.1693L24.7137 28.129L22.2053 28.129Q22.161 27.9761 22.098 27.8273Q22.0002 27.5958 21.864 27.3898L21.8636 27.3893L21.8636 27.3893Q21.7145 27.1638 21.5194 26.9688Q21.3243 26.7736 21.0988 26.6244Q20.8926 26.488 20.6609 26.39Q20.4291 26.292 20.1873 26.2391L20.1873 26.2391Q19.9049 26.1774 19.6091 26.1774Q19.3132 26.1774 19.0309 26.2391L19.0309 26.2391Q18.7891 26.292 18.5573 26.39Q18.3256 26.488 18.1194 26.6244L18.1194 26.6244Q17.8938 26.7736 17.6987 26.9688Q17.5037 27.1638 17.3545 27.3893L17.3545 27.3893Q17.218 27.5956 17.1201 27.8273Q17.0571 27.9761 17.0128 28.129L16.7057 28.129Q16.6539 28.129 16.6097 28.1107Q16.5656 28.0924 16.5289 28.0558Q16.4923 28.0192 16.474 27.975Q16.4557 27.9308 16.4557 27.879L16.4557 24.9758C16.4557 24.5558 16.1256 24.2258 15.7057 24.2258C15.2856 24.2258 14.9557 24.5558 14.9557 24.9758L14.9557 27.879Q14.9557 28.0677 14.9945 28.248L14.9945 28.248Q15.0288 28.4075 15.0935 28.5604Q15.1576 28.712 15.2471 28.8467Q15.343 28.9912 15.4683 29.1165Q15.5934 29.2417 15.738 29.3376Q15.8727 29.4271 16.0243 29.4912Q16.1772 29.5559 16.3367 29.5902Q16.517 29.629 16.7057 29.629L17.0128 29.629Q17.0571 29.782 17.1201 29.9309Q17.218 30.1625 17.3544 30.3687L17.3545 30.3688Q17.5037 30.5942 17.6987 30.7894Q17.8938 30.9844 18.1191 31.1335L18.1194 31.1337L18.1198 31.1339L18.1198 31.1339Q18.3258 31.2701 18.5573 31.368Q18.7891 31.4661 19.0309 31.5189Q19.3132 31.5807 19.6091 31.5807Q19.9049 31.5807 20.1873 31.5189Q20.4291 31.4661 20.6609 31.368Q20.8926 31.27 21.0988 31.1337L21.0989 31.1337L21.0989 31.1335Q21.3243 30.9845 21.5194 30.7894Q21.7145 30.5942 21.8636 30.3688L21.8636 30.3688L21.8636 30.3688Q22.0001 30.1625 22.098 29.9309Q22.161 29.782 22.2053 29.629L26.771 29.629Q26.8153 29.782 26.8783 29.9309Q26.9762 30.1625 27.1127 30.3688L27.1127 30.3688Q27.2618 30.5942 27.4569 30.7894Q27.6521 30.9845 27.8776 31.1337Q28.0837 31.27 28.3154 31.368Q28.5472 31.4661 28.7889 31.5189L28.7891 31.5189L28.7891 31.5189L28.7891 31.5189Q29.0714 31.5807 29.3673 31.5807Q29.6631 31.5807 29.9454 31.5189L29.9456 31.5189Q30.1873 31.4661 30.4191 31.368Q30.6508 31.27 30.8571 31.1337Q31.0825 30.9845 31.2776 30.7894Q31.4727 30.5944 31.6218 30.3689L31.6218 30.3688Q31.7583 30.1626 31.8563 29.9309Q31.9192 29.782 31.9635 29.629L32.2703 29.629Q32.4589 29.629 32.6392 29.5902L32.6392 29.5902L32.6393 29.5902Q32.7987 29.5559 32.9517 29.4912Q33.1033 29.4271 33.2379 29.3376L33.238 29.3375Q33.3826 29.2416 33.5077 29.1165Q33.6328 28.9913 33.7289 28.8468L33.7289 28.8467Q33.8184 28.712 33.8824 28.5604Q33.9471 28.4075 33.9814 28.248L33.9814 28.248Q34.0203 28.0677 34.0203 27.879L34.0203 23.0242Q34.0203 22.9731 34.0134 22.9232Q34.0066 22.873 33.993 22.824Q33.9794 22.7748 33.9595 22.7284Q33.9396 22.682 33.9133 22.6383L31.2772 18.2448Q31.1587 18.0471 30.999 17.8915Q30.8395 17.7358 30.6388 17.6223Q30.4382 17.5087 30.2227 17.4519Q30.0072 17.3951 29.7766 17.3951L26.0336 17.3951Q25.984 17.2944 25.9224 17.2017Q25.8264 17.057 25.7012 16.9319Q25.576 16.8066 25.4314 16.7107L25.4314 16.7107Q25.2968 16.6212 25.1451 16.5571Q24.9922 16.4924 24.8328 16.4581Q24.6525 16.4193 24.4637 16.4193ZM29.991 19.0165L31.9456 22.2742L26.2137 22.2742L26.2137 18.8951L29.7766 18.8951Q29.8474 18.8951 29.901 18.9254Q29.9546 18.9558 29.991 19.0165ZM15.7057 20.3226L19.609 20.3226C20.0289 20.3226 20.359 20.6526 20.359 21.0726C20.359 21.4926 20.0289 21.8226 19.609 21.8226L15.7057 21.8226C15.2858 21.8226 14.9557 21.4926 14.9557 21.0726C14.9557 20.6526 15.2858 20.3226 15.7057 20.3226ZM26.2137 28.129L26.2137 23.7742L32.5203 23.7742L32.5203 27.879Q32.5203 27.9308 32.502 27.975Q32.4836 28.0192 32.447 28.0558Q32.4104 28.0924 32.3662 28.1107Q32.322 28.129 32.2703 28.129L31.9635 28.129Q31.9192 27.9761 31.8563 27.8273Q31.7583 27.5956 31.6218 27.3893Q31.4727 27.1638 31.2776 26.9688Q31.0825 26.7736 30.8571 26.6244Q30.6508 26.488 30.4191 26.39Q30.1873 26.292 29.9454 26.2391Q29.6631 26.1774 29.3673 26.1774Q29.0714 26.1774 28.7891 26.2391Q28.5474 26.292 28.3154 26.39Q28.0837 26.488 27.8776 26.6244L27.8776 26.6244Q27.652 26.7736 27.4569 26.9688Q27.2618 27.1638 27.1127 27.3893L27.1127 27.3893Q26.9762 27.5956 26.8783 27.8273Q26.8153 27.9761 26.771 28.129L26.2137 28.129ZM20.7783 28.5991Q20.8092 28.7292 20.8107 28.8663L20.8105 28.879L20.8107 28.8917Q20.8092 29.0288 20.7782 29.1589Q20.7554 29.2546 20.7166 29.3466Q20.6755 29.4435 20.6193 29.5306L20.6193 29.5306Q20.5504 29.6371 20.4587 29.7288Q20.3673 29.8202 20.2611 29.8889L20.2606 29.8892L20.2606 29.8893Q20.1735 29.9456 20.0765 29.9866Q19.9847 30.0254 19.889 30.0482L19.8887 30.0483Q19.7527 30.0807 19.6091 30.0807Q19.4652 30.0807 19.3292 30.0482Q19.2335 30.0254 19.1416 29.9866Q19.0447 29.9456 18.9576 29.8893L18.9575 29.8893L18.9575 29.8892Q18.8511 29.8204 18.7594 29.7288Q18.6677 29.6371 18.5989 29.5306Q18.5426 29.4435 18.5016 29.3466Q18.4628 29.2546 18.4399 29.1591L18.4399 29.1589L18.4399 29.1589Q18.4075 29.0228 18.4075 28.879Q18.4075 28.7352 18.4399 28.5991L18.4399 28.5991Q18.4628 28.5034 18.5016 28.4115Q18.5426 28.3146 18.5989 28.2275L18.5989 28.2275Q18.6677 28.1211 18.7594 28.0294Q18.8511 27.9377 18.9575 27.8689L18.9575 27.8689Q19.0446 27.8125 19.1416 27.7715Q19.2334 27.7327 19.3291 27.7098L19.3295 27.7098Q19.4655 27.6774 19.6091 27.6774Q19.7529 27.6774 19.8889 27.7098L19.8889 27.7098L19.889 27.7098L19.889 27.7098Q19.9847 27.7327 20.0765 27.7715Q20.1736 27.8125 20.2606 27.8689L20.2606 27.8689Q20.3671 27.9377 20.4587 28.0294Q20.5504 28.1211 20.6193 28.2275Q20.6755 28.3146 20.7166 28.4115Q20.7555 28.5034 20.7782 28.5991L20.7782 28.5991L20.7783 28.5991ZM30.5366 28.5997Q30.5671 28.728 30.5688 28.8632L30.5686 28.879Q30.5686 28.887 30.5688 28.8949Q30.5671 29.0304 30.5365 29.1589L30.5364 29.1589L30.5364 29.1591L30.5364 29.1591Q30.5135 29.2548 30.4747 29.3466Q30.4337 29.4435 30.3774 29.5305L30.3774 29.5306Q30.3086 29.6371 30.2169 29.7288Q30.1252 29.8204 30.0188 29.8892L30.0188 29.8893Q29.9318 29.9456 29.8347 29.9866Q29.7429 30.0254 29.6473 30.0482L29.6472 30.0482L29.6472 30.0482Q29.5111 30.0807 29.3673 30.0807Q29.2235 30.0807 29.0874 30.0482L29.0874 30.0482Q28.9917 30.0254 28.8998 29.9866Q28.8027 29.9456 28.7157 29.8892Q28.6093 29.8204 28.5176 29.7288Q28.4259 29.6371 28.3571 29.5306Q28.3008 29.4435 28.2598 29.3466Q28.2209 29.2546 28.1981 29.1589L28.1981 29.1589L28.1981 29.1589Q28.1656 29.0228 28.1656 28.879Q28.1656 28.7352 28.1981 28.5991L28.1981 28.5991L28.1981 28.5991Q28.2209 28.5034 28.2598 28.4115Q28.3008 28.3146 28.3571 28.2275L28.3571 28.2275L28.3573 28.2272Q28.426 28.121 28.5176 28.0294Q28.6093 27.9377 28.7157 27.8689L28.7157 27.8689L28.7157 27.8689Q28.8029 27.8125 28.8998 27.7715Q28.9917 27.7327 29.0874 27.7098L29.0874 27.7098L29.0874 27.7098Q29.2235 27.6774 29.3673 27.6774Q29.5111 27.6774 29.6471 27.7098L29.6471 27.7098L29.6472 27.7098Q29.7429 27.7327 29.8347 27.7715Q29.9318 27.8125 30.0188 27.8689L30.0188 27.8689Q30.1252 27.9377 30.2169 28.0294Q30.3086 28.1211 30.3774 28.2275L30.3774 28.2275Q30.4337 28.3146 30.4747 28.4115Q30.5135 28.5033 30.5364 28.599L30.5364 28.599L30.5365 28.5991L30.5366 28.5997Z" clip-rule="evenodd" fill="#FFFFFF" fill-opacity="1.000000" fill-rule="evenodd"/>
	</g>
</svg>
