<svg width="24.000000" height="24.000000" viewBox="0 0 24 24" fill="none" xmlns="http://www.w3.org/2000/svg" xmlns:xlink="http://www.w3.org/1999/xlink">
	<desc>
			Created with Pixso.
	</desc>
	<defs>
		<clipPath id="clip16_1800">
			<rect id="Frame" rx="0.000000" width="23.000000" height="23.000000" transform="translate(0.500000 0.500000)" fill="white" fill-opacity="0"/>
		</clipPath>
	</defs>
	<rect id="Frame" rx="0.000000" width="23.000000" height="23.000000" transform="translate(0.500000 0.500000)" fill="#FFFFFF" fill-opacity="0"/>
	<g clip-path="url(#clip16_1800)">
		<path id="Vector" d="M12 12C9.23 12 7 9.76 7 7C7 4.23 9.23 2 12 2C14.76 2 17 4.23 17 7C17 9.76 14.76 12 12 12Z" stroke="#000000" stroke-opacity="0.900000" stroke-width="2.000000"/>
		<path id="Vector" d="M17 14L17.35 14C18.86 14 20.14 15.12 20.32 16.62L20.71 19.75C20.86 20.94 19.93 22 18.73 22L5.26 22C4.06 22 3.13 20.94 3.28 19.75L3.67 16.62C3.85 15.12 5.13 14 6.64 14L7 14" stroke="#000000" stroke-opacity="0.900000" stroke-width="2.000000" stroke-linejoin="round" stroke-linecap="round"/>
	</g>
</svg>
