<svg width="24.000000" height="24.000000" viewBox="0 0 24 24" fill="none" xmlns="http://www.w3.org/2000/svg" xmlns:xlink="http://www.w3.org/1999/xlink">
	<desc>
			Created with Pixso.
	</desc>
	<defs>
		<clipPath id="clip16_1793">
			<rect id="Frame 1326" rx="0.000000" width="23.000000" height="23.000000" transform="translate(0.500000 0.500000)" fill="white" fill-opacity="0"/>
		</clipPath>
	</defs>
	<g clip-path="url(#clip16_1793)">
		<path id="Vector 35" d="M9 15L2 15C1.44 15 1 14.55 1 14L1 8C1 7.44 1.44 7 2 7L8 7L15 7L21 7C21.55 7 22 7.44 22 8L22 14C22 14.55 21.55 15 21 15L14 15M14 12.5C14 11.94 13.55 11.5 13 11.5L10 11.5C9.44 11.5 9 11.94 9 12.5L9 15L9 15.5C9 16.05 9.44 16.5 10 16.5L13 16.5C13.55 16.5 14 16.05 14 15.5L14 15L14 12.5ZM8 7L8 3C8 2.44 8.44 2 9 2L14 2C14.55 2 15 2.44 15 3L15 7M2 15L2 20.5C2 21.05 2.44 21.5 3 21.5L20 21.5C20.55 21.5 21 21.05 21 20.5L21 15" stroke="#FFFFFF" stroke-opacity="1.000000" stroke-width="2.000000"/>
	</g>
</svg>
